<svg xmlns="http://www.w3.org/2000/svg" version="1.1" xmlns:xlink="http://www.w3.org/1999/xlink" xmlns:svgjs="http://svgjs.dev/svgjs" width="100%" height="100%" viewBox="0 0 1000 600"><rect width="1000" height="600" x="0" y="0" fill="#1b263b"/><g><rect width="333.3333333333333" height="333.3333333333333" rx="13.333333333333334" ry="13.333333333333334" y="196.01509860712315" fill="white" transform="matrix(0.7192471346885192,0,0,0.7192471346885191,0,39.142207008018985)" x="173.79287719726562"/><path d="M233.3315683136971 366.7591193719046L200.11728360498628 400.39007073466723L199.46252172004756 381.1043570328352L290.3256142072286 287.68174081362093L308.53989937007 287.68174081362093L242.3196632796744 357.1162625209886L233.3315683136971 366.7591193719046ZM202.26014068296763 437.68173627231477L186.39704592513354 437.68173627231477L186.39704592513354 287.68174081362093L202.26014068296763 287.68174081362093L202.26014068296763 437.68173627231477ZM313.03394685305864 437.68173627231477L294.1648998052785 437.68173627231477L229.46252081178633 363.0984051970198L240.17680620169304 351.5507864990092L313.03394685305864 437.68173627231477ZM353.9565646617301 437.68173627231477L338.7482317888347 437.68173627231477L338.7482317888347 287.68174081362093L351.81370758374874 287.68174081362093L420.38513407915167 404.67578489063L413.5398961911557 404.67578489063L481.45656080161996 287.68174081362093L494.5220365965339 287.68174081362093L494.5220365965339 437.68173627231477L479.3137037236386 437.68173627231477L479.3137037236386 311.4615019984417L482.97441789852337 311.4615019984417L420.38513407915167 418.60435589750864L412.88513430621697 418.60435589750864L349.8791838327934 311.4615019984417L353.9565646617301 311.4615019984417L353.9565646617301 437.68173627231477Z " fill="#003049" transform="matrix(0.7192471346885192,0,0,0.7192471346885191,0,39.142207008018985)"/><path d="M714.0966040663748 436.2798691109148L695.0545501036654 436.2798691109148L695.0545501036654 403.76429639340483L694.1978523793716 398.42940601939415L694.1978523793716 344.02910052674565Q694.1978523793716 325.25963220358426 683.6838348539493 315.1739635403087Q673.1698173285268 305.0493540713834 652.41436791723 305.0493540713834L652.41436791723 305.0493540713834Q638.1230922437855 305.0493540713834 625.2336855737307 309.839073166298Q612.3442789036758 314.589851455563 603.3489527985921 322.45589419680493L603.3489527985921 322.45589419680493L594.3925674991583 307.58050643861475Q605.6075195262756 298.04000905443513 621.3006642031097 292.86088190302337Q636.9938088799438 287.6817547516116 654.4003490053653 287.6817547516116L654.4003490053653 287.6817547516116Q682.9829003522544 287.6817547516116 698.5592226121396 301.85620800810693Q714.0966040663748 315.9917204589526 714.0966040663748 344.8857982510393L714.0966040663748 344.8857982510393L714.0966040663748 436.2798691109148ZM644.2757395364401 437.6817381143045L644.2757395364401 437.6817381143045Q627.764837940962 437.6817381143045 615.5374249669522 432.23002532334465Q603.3489527985921 426.73937172673527 596.9237198663895 417.0820519256065Q590.4595461285373 407.38579131882807 590.4595461285373 394.76897028832116L590.4595461285373 394.76897028832116Q590.4595461285373 383.281432621656 595.9112589194971 373.8966984600753Q601.4019125161066 364.5119642984945 613.8629703240147 358.74872506233703Q626.3629689375723 353.02442663182933 647.3910039884172 353.02442663182933L647.3910039884172 353.02442663182933L698.1308737499926 353.02442663182933L698.1308737499926 367.86087358436976L647.9361752675131 367.86087358436976Q626.6355545771203 367.86087358436976 618.3411629737316 375.4543306860637Q610.0857121759925 383.008846982108 610.0857121759925 394.2237990092252L610.0857121759925 394.2237990092252Q610.0857121759925 406.84062003973213 619.8987951997201 414.39513633577633Q629.7118782234477 421.9885934374703 647.3910039884172 421.9885934374703L647.3910039884172 421.9885934374703Q664.2134320290929 421.9885934374703 676.401904197453 414.27831391882717Q688.590376365813 406.56803440018416 694.1978523793716 391.96523228154183L694.1978523793716 391.96523228154183L698.6760450290885 405.7113366758905Q693.0685690155301 420.3141387945326 679.2056422042324 428.99793845441855Q665.3037745872849 437.6817381143045 644.2757395364401 437.6817381143045ZM807.7492416539335 437.6817381143045L807.7492416539335 437.6817381143045Q789.524944609868 437.6817381143045 773.2476878482883 432.50261096289273Q757.0093718923581 427.32348381148097 747.7414601477265 419.45744107023893L747.7414601477265 419.45744107023893L756.7367862528101 403.76429639340483Q765.6931715522439 410.5010557708051 779.7118615861405 415.4075972826689Q793.730551620037 420.3141387945326 809.1511106573232 420.3141387945326L809.1511106573232 420.3141387945326Q830.1791457081681 420.3141387945326 839.4470574527998 413.69420183408147Q848.6760283917815 407.1132056792801 848.6760283917815 396.1708392917109L848.6760283917815 396.1708392917109Q848.6760283917815 388.0711517165706 843.4969012403697 383.4371958442548Q838.317774088958 378.8032399719391 829.9065600686201 376.42785082730654Q821.495346048282 374.0524616826741 811.0981509398089 372.3390662340868Q800.7398966369853 370.6646115911491 790.498464751111 368.44498566911545Q780.2570328652364 366.1864189414322 771.8458188448985 361.8250487086643Q763.4346048245607 357.50261928154623 758.2554776731488 349.9091621798523Q753.0763505217371 342.3546458838081 753.0763505217371 329.73782485330116L753.0763505217371 329.73782485330116Q753.0763505217371 317.6661751018903 759.8131098991373 308.16461852336045Q766.5498692765377 298.62412113918083 779.5560983635417 293.13346754257134Q792.6012682561955 287.6817547516116 811.4096773850065 287.6817547516116L811.4096773850065 287.6817547516116Q825.7009530584512 287.6817547516116 839.9922287318957 291.4590128996337Q854.2835044053402 295.2362710476558 863.5514161499718 301.42785914596016L863.5514161499718 301.42785914596016L854.8676164900858 317.3935894623423Q845.0545334663582 310.65683008494204 833.8395814392411 307.73626966121356Q822.6246294121238 304.7767684318354 811.4096773850065 304.7767684318354L811.4096773850065 304.7767684318354Q791.4719848923537 304.7767684318354 782.0872507307729 311.6692910318345Q772.7025165691923 318.52287282618397 772.7025165691923 329.1926535742052L772.7025165691923 329.1926535742052Q772.7025165691923 337.6038675945431 777.881643720604 342.3546458838081Q783.0607708720158 347.10542417307295 791.6277481149525 349.7923397629031Q800.1947253578894 352.44031454708363 810.3972164381141 354.1147691900212Q820.6386483239885 355.82816463860865 830.8800802098629 358.2035537832411Q841.1215120957372 360.5789429278735 849.6495485330242 364.62878671544365Q858.2165257759611 368.7175713086634 863.3956529273728 376.1552651877586Q868.5747800787847 383.55401826120396 868.5747800787847 395.6256680126148L868.5747800787847 395.6256680126148Q868.5747800787847 408.5150746826697 861.4486126448874 417.8998088442505Q854.2835044053402 427.32348381148097 840.6931632335904 432.50261096289273Q827.1028220618407 437.6817381143045 807.7492416539335 437.6817381143045ZM965.0311556731228 437.6817381143045L965.0311556731228 437.6817381143045Q943.73053498273 437.6817381143045 926.7523437194552 428.0244183131757Q909.8130932618303 418.3281577063973 900.0000102381027 401.3889072487723Q890.1869272143751 384.41071598549763 890.1869272143751 362.5259832103592L890.1869272143751 362.5259832103592Q890.1869272143751 340.4076056013224 900.0000102381027 323.58517756064657Q909.8130932618303 306.7627495199707 926.635521302506 297.22225213579117Q943.457949343182 287.6817547516116 965.0311556731228 287.6817547516116L965.0311556731228 287.6817547516116Q986.9158884482613 287.6817547516116 1003.8551389058862 297.22225213579117Q1020.833330169161 306.7627495199707 1030.4906499702897 323.58517756064657Q1040.1869105770681 340.4076056013224 1040.1869105770681 362.5259832103592L1040.1869105770681 362.5259832103592Q1040.1869105770681 384.41071598549763 1030.4906499702897 401.3889072487723Q1020.833330169161 418.3281577063973 1003.738316488937 428.0244183131757Q986.6433028087133 437.6817381143045 965.0311556731228 437.6817381143045ZM965.0311556731228 420.002612349335L965.0311556731228 420.002612349335Q981.0358267951547 420.002612349335 993.3411213804638 412.87644491543756Q1005.6853567714227 405.7113366758905 1012.8504650109699 392.6661667832367Q1019.9766324448672 379.65993769623276 1019.9766324448672 362.5259832103592L1019.9766324448672 362.5259832103592Q1019.9766324448672 345.1583838905874 1012.8504650109699 332.2689772205325Q1005.6853567714227 319.37957055047764 993.3411213804638 312.2144623109305Q981.0358267951547 305.0493540713834 965.3037413126708 305.0493540713834L965.3037413126708 305.0493540713834Q949.6105966358366 305.0493540713834 937.2663612448775 312.2144623109305Q924.9610666595686 319.37957055047764 917.6401951974226 332.2689772205325Q910.3582645409263 345.1583838905874 910.3582645409263 362.5259832103592L910.3582645409263 362.5259832103592Q910.3582645409263 379.65993769623276 917.6401951974226 392.6661667832367Q924.9610666595686 405.7113366758905 937.2663612448775 412.87644491543756Q949.6105966358366 420.002612349335 965.0311556731228 420.002612349335ZM1100.7398633623711 436.2798691109148L1080.841111675368 436.2798691109148L1080.841111675368 289.0836237550012L1099.8831656380773 289.0836237550012L1099.8831656380773 329.4652392137532L1096.8068419917502 321.87178211205924Q1103.8161870086983 305.90605179567706 1119.2367460459845 296.79390327364433Q1134.6573050832708 287.6817547516116 1155.9579257736636 287.6817547516116L1155.9579257736636 287.6817547516116Q1173.9096371781811 287.6817547516116 1187.4999783499306 294.535336545961Q1201.1292603273303 301.42785914596016 1208.8395398459731 315.4465491798567Q1216.5498193646165 329.4652392137532 1216.5498193646165 350.76585990414594L1216.5498193646165 350.76585990414594L1216.5498193646165 436.2798691109148L1196.6121268719635 436.2798691109148L1196.6121268719635 352.7129001866316Q1196.6121268719635 329.4652392137532 1185.007766788349 317.54935268494114Q1173.3644658990852 305.6334661561291 1152.3364308482403 305.6334661561291L1152.3364308482403 305.6334661561291Q1136.643286171406 305.6334661561291 1124.999985282142 311.9418766713825Q1113.3566843928782 318.250287186636 1107.0482738776245 330.16617371544805Q1100.7398633623711 342.0820602442601 1100.7398633623711 358.90448828493595L1100.7398633623711 358.90448828493595L1100.7398633623711 436.2798691109148Z " fill="#669bbc" transform="matrix(0.7192471346885192,0,0,0.7192471346885191,0,39.142207008018985)"/></g></svg>